<svg xmlns="http://www.w3.org/2000/svg"  viewBox="0 0 100 100" width="100px" height="100px"><path d="M26.5,93C17.953,93,11,86.047,11,77.5v-51C11,17.953,17.953,11,26.5,11h51C86.047,11,93,17.953,93,26.5v51 C93,86.047,86.047,93,77.5,93H26.5z" opacity=".35"/><path fill="#f2f2f2" d="M24.5,91C15.953,91,9,84.047,9,75.5v-51C9,15.953,15.953,9,24.5,9h51C84.047,9,91,15.953,91,24.5v51 C91,84.047,84.047,91,75.5,91H24.5z"/><path fill="#96c362" d="M75.5,15.5h-51c-4.971,0-9,4.029-9,9v51c0,4.971,4.029,9,9,9h51c4.971,0,9-4.029,9-9v-51 C84.5,19.529,80.471,15.5,75.5,15.5z"/><path fill="#40396e" d="M75.5,86h-51C18.71,86,14,81.29,14,75.5v-51C14,18.71,18.71,14,24.5,14h51 C81.29,14,86,18.71,86,24.5v51C86,81.29,81.29,86,75.5,86z M24.5,17c-4.136,0-7.5,3.364-7.5,7.5v51c0,4.136,3.364,7.5,7.5,7.5h51 c4.136,0,7.5-3.364,7.5-7.5v-51c0-4.136-3.364-7.5-7.5-7.5H24.5z"/><g><path fill="#f2f2f2" d="M71.059,63.419l-8.599-5.688c-1.05-0.636-2.362-0.647-3.423-0.032c0,0,0,0-3.688,2.15 c-0.494,0.287-0.97,0.341-1.354,0.27c-0.488-0.089-0.824-0.356-0.846-0.375c-2.027-1.486-4.394-3.453-6.919-5.975 c-2.523-2.523-4.49-4.89-5.975-6.919c-0.017-0.024-0.285-0.36-0.375-0.846c-0.069-0.384-0.017-0.858,0.27-1.354 c2.15-3.688,2.15-3.688,2.15-3.688c0.617-1.061,0.604-2.375-0.032-3.423l-5.688-8.599c-0.705-1.065-2.146-1.346-3.196-0.619 c0,0-2.694,1.844-3.583,2.47c-1.424,1.003-1.883,2.528-1.885,4.654c-0.004,2.991,2.573,12.359,13.426,23.212l0,0l0,0l0,0l0,0 c10.855,10.855,20.222,13.429,23.212,13.426c2.125-0.002,3.651-0.462,4.654-1.885c0.626-0.889,2.47-3.583,2.47-3.583 C72.406,65.565,72.126,64.124,71.059,63.419z"/></g></svg>